<?xml version="1.0" ?>
<svg height="4.0mm" version="1.1" viewBox="28.724 -4.345 15.430000000000003 4.0" width="15.430000000000003mm" xmlns="http://www.w3.org/2000/svg" xmlns:xlink="http://www.w3.org/1999/xlink">
	<g transform="scale(1,-1)">
		<g>
			<path d="M 44.154,1.655 L 44.144369453344396,1.458965719340879 L 44.11557056080647,1.2648193559677439 L 44.06788067146442,1.0744306454910757 L 44.001759065022576,0.8896331352698212 L 43.91784252869672,0.7122065263480056 L 43.81693922460509,0.5438595339607966 L 43.70002090672548,0.38621343167271016 L 43.5682135623731,0.2407864376269062 L 43.4227865683273,0.10897909327452737 L 43.26514046603921,-0.007939224605089334 L 43.096793473652,-0.10884252869670896 L 42.919366864730186,-0.19275906502257256 L 42.73456935450893,-0.25888067146441696 L 42.54418064403226,-0.3065705608064604 L 42.35003428065913,-0.3353694533443934 L 42.154,-0.345 L 41.95796571934088,-0.33536945334439405 L 41.76381935596775,-0.3065705608064615 L 41.57343064549108,-0.25888067146441873 L 41.38863313526983,-0.192759065022575 L 41.211206526348015,-0.10884252869671207 L 41.0428595339608,-0.007939224605092665 L 40.88521343167272,0.1089790932745236 L 40.73978643762691,0.24078643762690244 L 40.60797909327453,0.3862134316727064 L 40.491060775394914,0.5438595339607928 L 40.3901574713033,0.712206526348002 L 40.30624093497743,0.8896331352698178 L 40.240119328535584,1.0744306454910726 L 40.192429439193546,1.2648193559677412 L 40.16363054665561,1.4589657193408767 L 40.154,1.654999999999998 L 40.16363054665561,1.8510342806591193 L 40.19242943919354,2.045180644032255 L 40.240119328535584,2.2355693545089235 L 40.30624093497743,2.4203668647301786 L 40.39015747130329,2.5977934736519943 L 40.491060775394914,2.7661404660392037 L 40.60797909327453,2.923786568327291 L 40.73978643762691,3.069213562373095 L 40.88521343167271,3.201020906725473 L 41.0428595339608,3.3179392246050896 L 41.21120652634801,3.4188425286967092 L 41.38863313526982,3.5027590650225724 L 41.57343064549107,3.5688806714644166 L 41.76381935596774,3.61657056080646 L 41.957965719340876,3.645369453344393 L 42.153999999999996,3.6550000000000002 L 42.350034280659116,3.6453694533443946 L 42.54418064403225,3.616570560806462 L 42.73456935450892,3.56888067146442 L 42.91936686473017,3.502759065022577 L 43.09679347365199,3.4188425286967146 L 43.2651404660392,3.317939224605096 L 43.42278656832729,3.2010209067254802 L 43.56821356237309,3.069213562373103 L 43.70002090672547,2.9237865683273 L 43.816939224605086,2.766140466039215 L 43.91784252869671,2.5977934736520067 L 44.00175906502257,2.4203668647301924 L 44.067880671464415,2.2355693545089386 L 44.11557056080646,2.0451806440322713 L 44.144369453344396,1.8510342806591369 L 44.154,1.6550000000000165 L 44.154,1.655 z" fill="#66cc99" fill-rule="evenodd" opacity="0.6" stroke="#555555" stroke-width="0.02"/>
			<path d="M 32.724000000000004,1.655 L 32.714369453344396,1.458965719340879 L 32.68557056080646,1.2648193559677439 L 32.637880671464416,1.0744306454910757 L 32.571759065022576,0.8896331352698212 L 32.48784252869671,0.7122065263480056 L 32.386939224605094,0.5438595339607966 L 32.27002090672548,0.38621343167271016 L 32.138213562373096,0.2407864376269062 L 31.992786568327293,0.10897909327452737 L 31.835140466039206,-0.007939224605089334 L 31.666793473651996,-0.10884252869670896 L 31.489366864730183,-0.19275906502257256 L 31.304569354508928,-0.25888067146441696 L 31.11418064403226,-0.3065705608064604 L 30.920034280659124,-0.3353694533443934 L 30.724000000000004,-0.345 L 30.527965719340884,-0.33536945334439405 L 30.333819355967748,-0.3065705608064615 L 30.14343064549108,-0.25888067146441873 L 29.958633135269825,-0.192759065022575 L 29.781206526348008,-0.10884252869671207 L 29.612859533960798,-0.007939224605092665 L 29.45521343167271,0.1089790932745236 L 29.309786437626908,0.24078643762690244 L 29.17797909327453,0.3862134316727064 L 29.06106077539491,0.5438595339607928 L 28.96015747130329,0.712206526348002 L 28.876240934977428,0.8896331352698178 L 28.810119328535585,1.0744306454910726 L 28.76242943919354,1.2648193559677412 L 28.733630546655608,1.4589657193408767 L 28.724,1.654999999999998 L 28.733630546655608,1.8510342806591193 L 28.76242943919354,2.045180644032255 L 28.81011932853558,2.2355693545089235 L 28.876240934977425,2.4203668647301786 L 28.96015747130329,2.5977934736519943 L 29.06106077539491,2.7661404660392037 L 29.177979093274526,2.923786568327291 L 29.309786437626904,3.069213562373095 L 29.455213431672707,3.201020906725473 L 29.612859533960794,3.3179392246050896 L 29.781206526348004,3.4188425286967092 L 29.958633135269817,3.5027590650225724 L 30.143430645491073,3.5688806714644166 L 30.33381935596774,3.61657056080646 L 30.527965719340873,3.645369453344393 L 30.723999999999993,3.6550000000000002 L 30.920034280659117,3.6453694533443946 L 31.11418064403225,3.616570560806462 L 31.304569354508917,3.56888067146442 L 31.489366864730172,3.502759065022577 L 31.66679347365199,3.4188425286967146 L 31.835140466039196,3.317939224605096 L 31.992786568327283,3.2010209067254802 L 32.13821356237309,3.069213562373103 L 32.27002090672546,2.9237865683273 L 32.38693922460509,2.766140466039215 L 32.4878425286967,2.5977934736520067 L 32.57175906502257,2.4203668647301924 L 32.637880671464416,2.2355693545089386 L 32.68557056080646,2.0451806440322713 L 32.71436945334439,1.8510342806591369 L 32.724000000000004,1.6550000000000165 L 32.724000000000004,1.655 z" fill="#66cc99" fill-rule="evenodd" opacity="0.6" stroke="#555555" stroke-width="0.02"/>
		</g>
	</g>
	 
</svg>
