  0
SECTION
  2
HEADER
  9
$ACADVER
  1
AC1024
  9
$ACADMAINTVER
 70
6
  9
$DWGCODEPAGE
  3
ANSI_1252
  9
$LASTSAVEDBY
  1
ezdxf
  9
$INSBASE
 10
0.0
 20
0.0
 30
0.0
  9
$EXTMIN
 10
-100
 20
-100
 30
-100
  9
$EXTMAX
 10
100
 20
100
 30
100
  9
$LIMMIN
 10
0.0
 20
0.0
  9
$LIMMAX
 10
420.0
 20
297.0
  9
$ORTHOMODE
 70
0
  9
$REGENMODE
 70
1
  9
$FILLMODE
 70
1
  9
$QTEXTMODE
 70
0
  9
$MIRRTEXT
 70
1
  9
$LTSCALE
 40
1.0
  9
$ATTMODE
 70
1
  9
$TEXTSIZE
 40
2.5
  9
$TRACEWID
 40
1.0
  9
$TEXTSTYLE
  7
Standard
  9
$CLAYER
  8
0
  9
$CELTYPE
  6
ByLayer
  9
$CECOLOR
 62
256
  9
$CELTSCALE
 40
1.0
  9
$DISPSILH
 70
0
  9
$DIMSCALE
 40
1.0
  9
$DIMASZ
 40
2.5
  9
$DIMEXO
 40
0.625
  9
$DIMDLI
 40
3.75
  9
$DIMRND
 40
0.0
  9
$DIMDLE
 40
0.0
  9
$DIMEXE
 40
1.25
  9
$DIMTP
 40
0.0
  9
$DIMTM
 40
0.0
  9
$DIMTXT
 40
2.5
  9
$DIMCEN
 40
2.5
  9
$DIMTSZ
 40
0.0
  9
$DIMTOL
 70
0
  9
$DIMLIM
 70
0
  9
$DIMTIH
 70
0
  9
$DIMTOH
 70
0
  9
$DIMSE1
 70
0
  9
$DIMSE2
 70
0
  9
$DIMTAD
 70
1
  9
$DIMZIN
 70
8
  9
$DIMBLK
  1

  9
$DIMASO
 70
1
  9
$DIMSHO
 70
1
  9
$DIMPOST
  1

  9
$DIMAPOST
  1

  9
$DIMALT
 70
0
  9
$DIMALTD
 70
3
  9
$DIMALTF
 40
0.03937007874
  9
$DIMLFAC
 40
1.0
  9
$DIMTOFL
 70
1
  9
$DIMTVP
 40
0.0
  9
$DIMTIX
 70
0
  9
$DIMSOXD
 70
0
  9
$DIMSAH
 70
0
  9
$DIMBLK1
  1

  9
$DIMBLK2
  1

  9
$DIMSTYLE
  2
ISO-25
  9
$DIMCLRD
 70
0
  9
$DIMCLRE
 70
0
  9
$DIMCLRT
 70
0
  9
$DIMTFAC
 40
1.0
  9
$DIMGAP
 40
0.625
  9
$DIMJUST
 70
0
  9
$DIMSD1
 70
0
  9
$DIMSD2
 70
0
  9
$DIMTOLJ
 70
0
  9
$DIMTZIN
 70
8
  9
$DIMALTZ
 70
0
  9
$DIMALTTZ
 70
0
  9
$DIMUPT
 70
0
  9
$DIMDEC
 70
2
  9
$DIMTDEC
 70
2
  9
$DIMALTU
 70
2
  9
$DIMALTTD
 70
3
  9
$DIMTXSTY
  7
Standard
  9
$DIMAUNIT
 70
0
  9
$DIMADEC
 70
0
  9
$DIMALTRND
 40
0.0
  9
$DIMAZIN
 70
0
  9
$DIMDSEP
 70
44
  9
$DIMATFIT
 70
3
  9
$DIMFRAC
 70
0
  9
$DIMLDRBLK
  1

  9
$DIMLUNIT
 70
2
  9
$DIMLWD
 70
-2
  9
$DIMLWE
 70
-2
  9
$DIMTMOVE
 70
0
  9
$DIMFXL
 40
1.0
  9
$DIMFXLON
 70
0
  9
$DIMJOGANG
 40
0.785398163397
  9
$DIMTFILL
 70
0
  9
$DIMTFILLCLR
 70
0
  9
$DIMARCSYM
 70
0
  9
$DIMLTYPE
  6

  9
$DIMLTEX1
  6

  9
$DIMLTEX2
  6

  9
$DIMTXTDIRECTION
 70
0
  9
$LUNITS
 70
2
  9
$LUPREC
 70
4
  9
$SKETCHINC
 40
1.0
  9
$FILLETRAD
 40
10.0
  9
$AUNITS
 70
0
  9
$AUPREC
 70
2
  9
$MENU
  1
.
  9
$ELEVATION
 40
0.0
  9
$PELEVATION
 40
0.0
  9
$THICKNESS
 40
0.0
  9
$LIMCHECK
 70
0
  9
$CHAMFERA
 40
0.0
  9
$CHAMFERB
 40
0.0
  9
$CHAMFERC
 40
0.0
  9
$CHAMFERD
 40
0.0
  9
$SKPOLY
 70
0
  9
$TDCREATE
 40
2460686.55755787
  9
$TDUCREATE
 40
2458532.153996898
  9
$TDUPDATE
 40
2460686.55755787
  9
$TDUUPDATE
 40
2458532.1544311
  9
$TDINDWG
 40
0.0
  9
$TDUSRTIMER
 40
0.0
  9
$USRTIMER
 70
1
  9
$ANGBASE
 50
0.0
  9
$ANGDIR
 70
0
  9
$PDMODE
 70
0
  9
$PDSIZE
 40
0.0
  9
$PLINEWID
 40
0.0
  9
$SPLFRAME
 70
0
  9
$SPLINETYPE
 70
6
  9
$SPLINESEGS
 70
8
  9
$HANDSEED
  5
31
  9
$SURFTAB1
 70
6
  9
$SURFTAB2
 70
6
  9
$SURFTYPE
 70
6
  9
$SURFU
 70
6
  9
$SURFV
 70
6
  9
$UCSBASE
  2

  9
$UCSNAME
  2

  9
$UCSORG
 10
0.0
 20
0.0
 30
0.0
  9
$UCSXDIR
 10
1.0
 20
0.0
 30
0.0
  9
$UCSYDIR
 10
0.0
 20
1.0
 30
0.0
  9
$UCSORTHOREF
  2

  9
$UCSORTHOVIEW
 70
0
  9
$UCSORGTOP
 10
0.0
 20
0.0
 30
0.0
  9
$UCSORGBOTTOM
 10
0.0
 20
0.0
 30
0.0
  9
$UCSORGLEFT
 10
0.0
 20
0.0
 30
0.0
  9
$UCSORGRIGHT
 10
0.0
 20
0.0
 30
0.0
  9
$UCSORGFRONT
 10
0.0
 20
0.0
 30
0.0
  9
$UCSORGBACK
 10
0.0
 20
0.0
 30
0.0
  9
$PUCSBASE
  2

  9
$PUCSNAME
  2

  9
$PUCSORG
 10
0.0
 20
0.0
 30
0.0
  9
$PUCSXDIR
 10
1.0
 20
0.0
 30
0.0
  9
$PUCSYDIR
 10
0.0
 20
1.0
 30
0.0
  9
$PUCSORTHOREF
  2

  9
$PUCSORTHOVIEW
 70
0
  9
$PUCSORGTOP
 10
0.0
 20
0.0
 30
0.0
  9
$PUCSORGBOTTOM
 10
0.0
 20
0.0
 30
0.0
  9
$PUCSORGLEFT
 10
0.0
 20
0.0
 30
0.0
  9
$PUCSORGRIGHT
 10
0.0
 20
0.0
 30
0.0
  9
$PUCSORGFRONT
 10
0.0
 20
0.0
 30
0.0
  9
$PUCSORGBACK
 10
0.0
 20
0.0
 30
0.0
  9
$USERI1
 70
0
  9
$USERI2
 70
0
  9
$USERI3
 70
0
  9
$USERI4
 70
0
  9
$USERI5
 70
0
  9
$USERR1
 40
0.0
  9
$USERR2
 40
0.0
  9
$USERR3
 40
0.0
  9
$USERR4
 40
0.0
  9
$USERR5
 40
0.0
  9
$WORLDVIEW
 70
1
  9
$SHADEDGE
 70
3
  9
$SHADEDIF
 70
70
  9
$TILEMODE
 70
1
  9
$MAXACTVP
 70
64
  9
$PINSBASE
 10
0.0
 20
0.0
 30
0.0
  9
$PLIMCHECK
 70
0
  9
$PEXTMIN
 10
1e+20
 20
1e+20
 30
1e+20
  9
$PEXTMAX
 10
-1e+20
 20
-1e+20
 30
-1e+20
  9
$PLIMMIN
 10
0.0
 20
0.0
  9
$PLIMMAX
 10
420.0
 20
297.0
  9
$UNITMODE
 70
0
  9
$VISRETAIN
 70
1
  9
$PLINEGEN
 70
0
  9
$PSLTSCALE
 70
1
  9
$TREEDEPTH
 70
3020
  9
$CMLSTYLE
  2
Standard
  9
$CMLJUST
 70
0
  9
$CMLSCALE
 40
20.0
  9
$PROXYGRAPHICS
 70
1
  9
$MEASUREMENT
 70
1
  9
$CELWEIGHT
370
-1
  9
$ENDCAPS
280
0
  9
$JOINSTYLE
280
0
  9
$LWDISPLAY
290
0
  9
$INSUNITS
 70
6
  9
$HYPERLINKBASE
  1

  9
$STYLESHEET
  1

  9
$XEDIT
290
1
  9
$CEPSNTYPE
380
0
  9
$PSTYLEMODE
290
1
  9
$FINGERPRINTGUID
  2
CD34F60C-CF25-11EF-9382-C187E36D7DC4
  9
$VERSIONGUID
  2
CD359268-CF25-11EF-BDF0-C187E36D7DC4
  9
$EXTNAMES
290
1
  9
$PSVPSCALE
 40
0.0
  9
$OLESTARTUP
290
0
  9
$SORTENTS
280
127
  9
$INDEXCTL
280
0
  9
$HIDETEXT
280
1
  9
$XCLIPFRAME
280
2
  9
$HALOGAP
280
0
  9
$OBSCOLOR
 70
257
  9
$OBSLTYPE
280
0
  9
$INTERSECTIONDISPLAY
280
0
  9
$INTERSECTIONCOLOR
 70
257
  9
$DIMASSOC
280
2
  9
$PROJECTNAME
  1

  9
$CAMERADISPLAY
290
0
  9
$LENSLENGTH
 40
50.0
  9
$CAMERAHEIGHT
 40
0.0
  9
$STEPSPERSEC
 40
24.0
  9
$STEPSIZE
 40
100.0
  9
$3DDWFPREC
 40
2.0
  9
$PSOLWIDTH
 40
0.005
  9
$PSOLHEIGHT
 40
0.08
  9
$LOFTANG1
 40
1.570796326795
  9
$LOFTANG2
 40
1.570796326795
  9
$LOFTMAG1
 40
0.0
  9
$LOFTMAG2
 40
0.0
  9
$LOFTPARAM
 70
7
  9
$LOFTNORMALS
280
1
  9
$LATITUDE
 40
37.795
  9
$LONGITUDE
 40
-122.394
  9
$NORTHDIRECTION
 40
0.0
  9
$TIMEZONE
 70
-8000
  9
$LIGHTGLYPHDISPLAY
280
1
  9
$TILEMODELIGHTSYNCH
280
1
  9
$CMATERIAL
347
20
  9
$SOLIDHIST
280
0
  9
$SHOWHIST
280
1
  9
$DWFFRAME
280
2
  9
$DGNFRAME
280
2
  9
$REALWORLDSCALE
290
1
  9
$INTERFERECOLOR
 62
256
  9
$CSHADOW
280
0
  9
$SHADOWPLANELOCATION
 40
0.0
  0
ENDSEC
  0
SECTION
  2
CLASSES
  0
CLASS
  1
ACDBDICTIONARYWDFLT
  2
AcDbDictionaryWithDefault
  3
ObjectDBX Classes
 90
0
 91
0
280
0
281
0
  0
CLASS
  1
SUN
  2
AcDbSun
  3
SCENEOE
 90
1153
 91
0
280
0
281
0
  0
CLASS
  1
VISUALSTYLE
  2
AcDbVisualStyle
  3
ObjectDBX Classes
 90
4095
 91
0
280
0
281
0
  0
CLASS
  1
MATERIAL
  2
AcDbMaterial
  3
ObjectDBX Classes
 90
1153
 91
0
280
0
281
0
  0
CLASS
  1
SCALE
  2
AcDbScale
  3
ObjectDBX Classes
 90
1153
 91
0
280
0
281
0
  0
CLASS
  1
TABLESTYLE
  2
AcDbTableStyle
  3
ObjectDBX Classes
 90
4095
 91
0
280
0
281
0
  0
CLASS
  1
MLEADERSTYLE
  2
AcDbMLeaderStyle
  3
ACDB_MLEADERSTYLE_CLASS
 90
4095
 91
0
280
0
281
0
  0
CLASS
  1
DICTIONARYVAR
  2
AcDbDictionaryVar
  3
ObjectDBX Classes
 90
0
 91
0
280
0
281
0
  0
CLASS
  1
CELLSTYLEMAP
  2
AcDbCellStyleMap
  3
ObjectDBX Classes
 90
1152
 91
0
280
0
281
0
  0
CLASS
  1
MENTALRAYRENDERSETTINGS
  2
AcDbMentalRayRenderSettings
  3
SCENEOE
 90
1024
 91
0
280
0
281
0
  0
CLASS
  1
ACDBDETAILVIEWSTYLE
  2
AcDbDetailViewStyle
  3
ObjectDBX Classes
 90
1025
 91
0
280
0
281
0
  0
CLASS
  1
ACDBSECTIONVIEWSTYLE
  2
AcDbSectionViewStyle
  3
ObjectDBX Classes
 90
1025
 91
0
280
0
281
0
  0
CLASS
  1
RASTERVARIABLES
  2
AcDbRasterVariables
  3
ISM
 90
0
 91
0
280
0
281
0
  0
CLASS
  1
ACDBPLACEHOLDER
  2
AcDbPlaceHolder
  3
ObjectDBX Classes
 90
0
 91
0
280
0
281
0
  0
CLASS
  1
LAYOUT
  2
AcDbLayout
  3
ObjectDBX Classes
 90
0
 91
0
280
0
281
0
  0
ENDSEC
  0
SECTION
  2
TABLES
  0
TABLE
  2
VPORT
  5
4
330
0
100
AcDbSymbolTable
 70
1
  0
VPORT
  5
23
330
4
100
AcDbSymbolTableRecord
100
AcDbViewportTableRecord
  2
*Active
 70
0
 10
0.0
 20
0.0
 11
1.0
 21
1.0
 12
70.0
 22
50.0
 13
0.0
 23
0.0
 14
0.5
 24
0.5
 15
0.5
 25
0.5
 16
0.0
 26
0.0
 36
1.0
 17
0.0
 27
0.0
 37
0.0
 40
1.0
 41
1.34
 42
50.0
 43
0.0
 44
0.0
 50
0.0
 51
0.0
 71
0
 72
1000
 73
1
 74
3
 75
0
 76
0
 77
0
 78
0
281
0
 65
0
146
0.0
  0
ENDTAB
  0
TABLE
  2
LTYPE
  5
6
330
0
100
AcDbSymbolTable
 70
3
  0
LTYPE
  5
24
330
6
100
AcDbSymbolTableRecord
100
AcDbLinetypeTableRecord
  2
ByBlock
 70
0
  3

 72
65
 73
0
 40
0.0
  0
LTYPE
  5
25
330
6
100
AcDbSymbolTableRecord
100
AcDbLinetypeTableRecord
  2
ByLayer
 70
0
  3

 72
65
 73
0
 40
0.0
  0
LTYPE
  5
26
330
6
100
AcDbSymbolTableRecord
100
AcDbLinetypeTableRecord
  2
Continuous
 70
0
  3

 72
65
 73
0
 40
0.0
  0
ENDTAB
  0
TABLE
  2
LAYER
  5
1
330
0
100
AcDbSymbolTable
 70
2
  0
LAYER
  5
27
330
1
100
AcDbSymbolTableRecord
100
AcDbLayerTableRecord
  2
0
 70
0
 62
7
  6
Continuous
370
-3
390
13
347
21
  0
LAYER
  5
28
330
1
100
AcDbSymbolTableRecord
100
AcDbLayerTableRecord
  2
Defpoints
 70
0
 62
7
  6
Continuous
290
0
370
-3
390
13
347
21
  0
ENDTAB
  0
TABLE
  2
STYLE
  5
7
330
0
100
AcDbSymbolTable
 70
1
  0
STYLE
  5
29
330
7
100
AcDbSymbolTableRecord
100
AcDbTextStyleTableRecord
  2
Standard
 70
0
 40
0.0
 41
1.0
 50
0.0
 71
0
 42
2.5
  3
txt
  4

  0
ENDTAB
  0
TABLE
  2
VIEW
  5
8
330
0
100
AcDbSymbolTable
 70
0
  0
ENDTAB
  0
TABLE
  2
UCS
  5
5
330
0
100
AcDbSymbolTable
 70
0
  0
ENDTAB
  0
TABLE
  2
APPID
  5
2
330
0
100
AcDbSymbolTable
 70
1
  0
APPID
  5
2A
330
2
100
AcDbSymbolTableRecord
100
AcDbRegAppTableRecord
  2
ACAD
 70
0
  0
ENDTAB
  0
TABLE
  2
DIMSTYLE
  5
9
330
0
100
AcDbSymbolTable
 70
1
100
AcDbDimStyleTable
  0
DIMSTYLE
105
2B
330
9
100
AcDbSymbolTableRecord
100
AcDbDimStyleTableRecord
  2
Standard
 70
0
 40
1.0
 41
2.5
 42
0.625
 43
3.75
 44
1.25
 45
0.0
 46
0.0
 47
0.0
 48
0.0
 49
2.5
140
2.5
141
2.5
142
0.0
143
0.03937007874
144
1.0
145
0.0
146
1.0
147
0.625
148
0.0
 69
0
 70
0
 71
0
 72
0
 73
0
 74
0
 75
0
 76
0
 77
1
 78
8
 79
0
170
0
171
3
172
1
173
0
174
0
175
0
176
0
177
0
178
0
179
0
271
0
272
2
273
2
274
3
275
0
276
0
277
2
278
44
279
0
280
0
281
0
282
0
283
0
284
8
285
0
286
0
288
0
289
3
290
0
371
-2
372
-2
  0
ENDTAB
  0
TABLE
  2
BLOCK_RECORD
  5
3
330
0
100
AcDbSymbolTable
 70
2
  0
BLOCK_RECORD
  5
17
330
3
100
AcDbSymbolTableRecord
100
AcDbBlockTableRecord
  2
*Model_Space
340
1A
 70
0
280
1
281
1
  0
BLOCK_RECORD
  5
1B
330
3
100
AcDbSymbolTableRecord
100
AcDbBlockTableRecord
  2
*Paper_Space
340
1E
 70
0
280
1
281
1
  0
ENDTAB
  0
ENDSEC
  0
SECTION
  2
BLOCKS
  0
BLOCK
  5
18
330
17
100
AcDbEntity
  8
0
100
AcDbBlockBegin
  2
*Model_Space
 70
0
 10
0.0
 20
0.0
 30
0.0
  3
*Model_Space
  1

  0
ENDBLK
  5
19
330
17
100
AcDbEntity
  8
0
100
AcDbBlockEnd
  0
BLOCK
  5
1C
330
1B
100
AcDbEntity
  8
0
100
AcDbBlockBegin
  2
*Paper_Space
 70
0
 10
0.0
 20
0.0
 30
0.0
  3
*Paper_Space
  1

  0
ENDBLK
  5
1D
330
1B
100
AcDbEntity
  8
0
100
AcDbBlockEnd
  0
ENDSEC
  0
SECTION
  2
ENTITIES
  0
LWPOLYLINE
  5
2D
330
17
100
AcDbEntity
  8
0
100
AcDbPolyline
 90
326
 70
0
 43
0.0
 10
-35.99098342926589
 20
60.72486999754522
 10
-35.99098342926589
 20
-4.959979997545219
 10
-35.99096837020145
 20
-4.961207058910003
 10
-35.99092320207916
 20
-4.962433381138904
 10
-35.99031135680523
 20
-4.974887777803972
 10
-35.99023610683267
 20
-4.976112622206346
 10
-35.990130820337605
 20
-4.977335250981712
 10
-35.989995560740695
 20
-4.978554927664214
 10
-35.98983040951725
 20
-4.979770917566225
 10
-35.988000766460516
 20
-4.992105369152125
 10
-35.98780582309147
 20
-4.993316939806801
 10
-35.987581205003416
 20
-4.994523361409279
 10
-35.987327047497885
 20
-4.995723907256298
 10
-35.98704350366986
 20
-4.996917854183927
 10
-35.98401368317258
 20
-5.009013575633702
 10
-35.98370092381826
 20
-5.010200204452939
 10
-35.983359137332194
 20
-5.011378800382974
 10
-35.98298852959377
 20
-5.01254865348169
 10
-35.982589323843236
 20
-5.013709059073323
 10
-35.97838850473302
 20
-5.025449561977499
 10
-35.97796094143698
 20
-5.026599821077136
 10
-35.97750527814359
 20
-5.02773924081168
 10
-35.97702178932737
 20
-5.0288671348372915
 10
-35.97651076622391
 20
-5.029982823752782
 10
-35.97117940468525
 20
-5.041255040650132
 10
-35.97064115511577
 20
-5.042357852406205
 10
-35.97007600330167
 20
-5.043447122710309
 10
-35.969484289669275
 20
-5.044522195426742
 10
-35.96886637064475
 20
-5.0455824229719
 10
-35.96245581060362
 20
-5.056277796251854
 10
-35.96181205839828
 20
-5.057322539984309
 10
-35.961142860784385
 20
-5.058351170589501
 10
-35.960448620861555
 20
-5.059363068458816
 10
-35.95972975681395
 20
-5.0603576240628145
 10
-35.95230173546796
 20
-5.070373151433927
 10
-35.95155868031241
 20
-5.071349765689507
 10
-35.95079188163756
 20
-5.072307850320755
 10
-35.950001801334245
 20
-5.073246828213314
 10
-35.949188915317315
 20
-5.07416613376201
 10
-35.94081496857258
 20
-5.083405360220669
 10
-35.93997976649417
 20
-5.084304439670216
 10
-35.93912275144878
 20
-5.085182751448773
 10
-35.93824443967022
 20
-5.0860397664941654
 10
-35.937345360220675
 20
-5.086874968572578
 10
-35.92810613376201
 20
-5.095248915317321
 10
-35.92718682821331
 20
-5.096061801334258
 10
-35.92624785032074
 20
-5.096851881637571
 10
-35.92528976568949
 20
-5.097618680312428
 10
-35.92431315143391
 20
-5.0983617354679795
 10
-35.91429762406282
 20
-5.105789756813945
 10
-35.91330306845882
 20
-5.106508620861547
 10
-35.91229117058951
 20
-5.107202860784379
 10
-35.91126253998432
 20
-5.107872058398274
 10
-35.91021779625187
 20
-5.1085158106036115
 10
-35.89952242297191
 20
-5.1149263706447385
 10
-35.89846219542675
 20
-5.115544289669266
 10
-35.89738712271031
 20
-5.116136003301665
 10
-35.8962978524062
 20
-5.116701155115766
 10
-35.89519504065012
 20
-5.11723940468525
 10
-35.88392282375273
 20
-5.122570766223925
 10
-35.88280713483725
 20
-5.123081789327379
 10
-35.88167924081165
 20
-5.123565278143592
 10
-35.880539821077114
 20
-5.124020941436981
 10
-35.87938956197749
 20
-5.1244485047330155
 10
-35.867649059073386
 20
-5.128649323843214
 10
-35.866488653481746
 20
-5.129048529593755
 10
-35.865318800383015
 20
-5.129419137332182
 10
-35.86414020445297
 20
-5.129760923818253
 10
-35.862953575633725
 20
-5.13007368317257
 10
-35.850857854183886
 20
-5.133103503669863
 10
-35.84966390725626
 20
-5.1333870474978855
 10
-35.848463361409244
 20
-5.133641205003414
 10
-35.847256939806776
 20
-5.13386582309147
 10
-35.8460453691521
 20
-5.1340607664605145
 10
-35.83371091756627
 20
-5.135890409517242
 10
-35.832494927664264
 20
-5.136055560740681
 10
-35.83127525098176
 20
-5.1361908203375926
 10
-35.8300526222064
 20
-5.136296106832653
 10
-35.82882777780403
 20
-5.136371356805214
 10
-35.816373381138845
 20
-5.136983202079153
 10
-35.815147058909936
 20
-5.137028370201446
 10
-35.81391999754515
 20
-5.1370434292658835
 10
45.97388999754515
 20
-5.1370434292658835
 10
45.97511705890994
 20
-5.137028370201446
 10
45.97634338113885
 20
-5.136983202079153
 10
45.988797777804024
 20
-5.136371356805214
 10
45.990022622206396
 20
-5.136296106832653
 10
45.991245250981756
 20
-5.1361908203375926
 10
45.99246492766426
 20
-5.136055560740681
 10
45.993680917566266
 20
-5.135890409517242
 10
46.006015369152095
 20
-5.1340607664605145
 10
46.00722693980676
 20
-5.13386582309147
 10
46.00843336140924
 20
-5.133641205003415
 10
46.00963390725625
 20
-5.133387047497887
 10
46.01082785418387
 20
-5.133103503669865
 10
46.02292357563372
 20
-5.130073683172572
 10
46.02411020445297
 20
-5.129760923818255
 10
46.02528880038302
 20
-5.1294191373321825
 10
46.02645865348174
 20
-5.129048529593755
 10
46.02761905907339
 20
-5.128649323843214
 10
46.03935956197749
 20
-5.1244485047330155
 10
46.04050982107712
 20
-5.12402094143698
 10
46.04164924081166
 20
-5.123565278143589
 10
46.04277713483726
 20
-5.123081789327374
 10
46.04389282375274
 20
-5.12257076622392
 10
46.05516504065013
 20
-5.117239404685246
 10
46.0562678524062
 20
-5.116701155115763
 10
46.05735712271031
 20
-5.116136003301665
 10
46.05843219542674
 20
-5.115544289669271
 10
46.05949242297189
 20
-5.1149263706447465
 10
46.07018779625186
 20
-5.1085158106036195
 10
46.071232539984315
 20
-5.10787205839828
 10
46.072261170589506
 20
-5.107202860784383
 10
46.07327306845882
 20
-5.106508620861549
 10
46.07426762406282
 20
-5.105789756813945
 10
46.08428315143391
 20
-5.0983617354679795
 10
46.08525976568949
 20
-5.097618680312428
 10
46.08621785032074
 20
-5.096851881637571
 10
46.08715682821331
 20
-5.096061801334258
 10
46.08807613376201
 20
-5.095248915317321
 10
46.097315360220676
 20
-5.086874968572578
 10
46.09821443967022
 20
-5.086039766494166
 10
46.09909275144878
 20
-5.085182751448773
 10
46.09994976649417
 20
-5.084304439670217
 10
46.10078496857258
 20
-5.083405360220671
 10
46.109158915317316
 20
-5.074166133762013
 10
46.10997180133425
 20
-5.073246828213315
 10
46.11076188163756
 20
-5.072307850320756
 10
46.11152868031241
 20
-5.071349765689509
 10
46.112271735467964
 20
-5.070373151433928
 10
46.11969975681395
 20
-5.060357624062815
 10
46.12041862086156
 20
-5.059363068458816
 10
46.121112860784386
 20
-5.058351170589501
 10
46.12178205839829
 20
-5.057322539984309
 10
46.12242581060362
 20
-5.0562777962518535
 10
46.12883637064475
 20
-5.045582422971898
 10
46.129454289669276
 20
-5.044522195426741
 10
46.13004600330167
 20
-5.043447122710308
 10
46.13061115511577
 20
-5.042357852406204
 10
46.13114940468525
 20
-5.041255040650132
 10
46.13648076622391
 20
-5.029982823752782
 10
46.13699178932737
 20
-5.0288671348372915
 10
46.13747527814359
 20
-5.027739240811681
 10
46.137930941436984
 20
-5.026599821077136
 10
46.13835850473302
 20
-5.0254495619775
 10
46.14255932384324
 20
-5.013709059073324
 10
46.14295852959377
 20
-5.012548653481691
 10
46.143329137332195
 20
-5.011378800382975
 10
46.14367092381826
 20
-5.010200204452939
 10
46.14398368317258
 20
-5.009013575633702
 10
46.14701350366986
 20
-4.996917854183926
 10
46.14729704749789
 20
-4.995723907256297
 10
46.14755120500342
 20
-4.994523361409279
 10
46.14777582309147
 20
-4.993316939806801
 10
46.14797076646052
 20
-4.992105369152125
 10
46.149800409517255
 20
-4.979770917566225
 10
46.149965560740696
 20
-4.978554927664214
 10
46.150100820337606
 20
-4.977335250981712
 10
46.15020610683267
 20
-4.976112622206346
 10
46.15028135680523
 20
-4.974887777803972
 10
46.15089320207916
 20
-4.962433381138904
 10
46.15093837020145
 20
-4.961207058910003
 10
46.15095342926589
 20
-4.959979997545219
 10
46.15095342926589
 20
60.72486999754522
 10
46.15093837020145
 20
60.72609705891001
 10
46.15089320207916
 20
60.72732338113891
 10
46.15028135680523
 20
60.73977777780397
 10
46.15020610683267
 20
60.741002622206345
 10
46.150100820337606
 20
60.74222525098171
 10
46.149965560740696
 20
60.743444927664214
 10
46.149800409517255
 20
60.74466091756622
 10
46.14797076646052
 20
60.75699536915212
 10
46.14777582309147
 20
60.7582069398068
 10
46.14755120500342
 20
60.75941336140927
 10
46.14729704749789
 20
60.760613907256285
 10
46.14701350366986
 20
60.761807854183914
 10
46.14398368317258
 20
60.773903575633696
 10
46.14367092381827
 20
60.77509020445294
 10
46.143329137332195
 20
60.77626880038297
 10
46.14295852959377
 20
60.777438653481695
 10
46.14255932384324
 20
60.77859905907333
 10
46.13835850473302
 20
60.790339561977504
 10
46.13793094143698
 20
60.79148982107714
 10
46.13747527814358
 20
60.79262924081169
 10
46.13699178932737
 20
60.79375713483731
 10
46.136480766223904
 20
60.7948728237528
 10
46.131149404685246
 20
60.80614504065014
 10
46.130611155115766
 20
60.807247852406206
 10
46.130046003301665
 20
60.808337122710306
 10
46.129454289669276
 20
60.80941219542674
 10
46.12883637064475
 20
60.81047242297189
 10
46.12242581060361
 20
60.82116779625187
 10
46.121782058398274
 20
60.82221253998432
 10
46.12111286078438
 20
60.82324117058951
 10
46.12041862086154
 20
60.82425306845882
 10
46.119699756813944
 20
60.82524762406282
 10
46.11227173546798
 20
60.83526315143391
 10
46.11152868031243
 20
60.83623976568949
 10
46.11076188163757
 20
60.83719785032074
 10
46.10997180133426
 20
60.8381368282133
 10
46.10915891531733
 20
60.839056133762
 10
46.10078496857259
 20
60.84829536022067
 10
46.09994976649417
 20
60.849194439670214
 10
46.09909275144878
 20
60.85007275144878
 10
46.098214439670215
 20
60.85092976649417
 10
46.09731536022067
 20
60.85176496857259
 10
46.088076133762
 20
60.86013891531733
 10
46.0871568282133
 20
60.86095180133426
 10
46.08621785032074
 20
60.86174188163757
 10
46.08525976568949
 20
60.86250868031243
 10
46.08428315143391
 20
60.863251735467976
 10
46.07426762406282
 20
60.87067975681394
 10
46.073273068458825
 20
60.87139862086154
 10
46.07226117058951
 20
60.87209286078438
 10
46.07123253998432
 20
60.87276205839827
 10
46.07018779625187
 20
60.87340581060361
 10
46.05949242297189
 20
60.87981637064475
 10
46.05843219542674
 20
60.880434289669275
 10
46.05735712271031
 20
60.88102600330166
 10
46.05626785240621
 20
60.881591155115764
 10
46.05516504065014
 20
60.882129404685244
 10
46.0438928237528
 20
60.8874607662239
 10
46.04277713483731
 20
60.887971789327366
 10
46.041649240811694
 20
60.88845527814358
 10
46.040509821077144
 20
60.888910941436976
 10
46.039359561977506
 20
60.88933850473302
 10
46.02761905907333
 20
60.893539323843235
 10
46.0264586534817
 20
60.89393852959377
 10
46.025288800382974
 20
60.89430913733219
 10
46.02411020445294
 20
60.89465092381827
 10
46.0229235756337
 20
60.89496368317258
 10
46.010827854183916
 20
60.89799350366986
 10
46.00963390725629
 20
60.898277047497885
 10
46.008433361409274
 20
60.898531205003415
 10
46.0072269398068
 20
60.89875582309147
 10
46.006015369152124
 20
60.898950766460516
 10
45.99368091756622
 20
60.90078040951725
 10
45.992464927664216
 20
60.900945560740695
 10
45.99124525098171
 20
60.901080820337604
 10
45.99002262220635
 20
60.90118610683267
 10
45.988797777803974
 20
60.90126135680523
 10
45.97634338113891
 20
60.90187320207916
 10
45.97511705891001
 20
60.90191837020145
 10
45.97388999754522
 20
60.90193342926589
 10
-35.81391999754522
 20
60.90193342926589
 10
-35.81514705891001
 20
60.90191837020145
 10
-35.81637338113891
 20
60.90187320207916
 10
-35.82882777780397
 20
60.90126135680523
 10
-35.830052622206345
 20
60.90118610683267
 10
-35.83127525098171
 20
60.901080820337604
 10
-35.832494927664214
 20
60.900945560740695
 10
-35.83371091756622
 20
60.90078040951725
 10
-35.84604536915212
 20
60.898950766460516
 10
-35.8472569398068
 20
60.89875582309147
 10
-35.84846336140927
 20
60.898531205003415
 10
-35.849663907256286
 20
60.898277047497885
 10
-35.850857854183914
 20
60.89799350366986
 10
-35.862953575633696
 20
60.89496368317258
 10
-35.86414020445294
 20
60.89465092381827
 10
-35.86531880038297
 20
60.89430913733219
 10
-35.866488653481696
 20
60.89393852959377
 10
-35.86764905907333
 20
60.893539323843235
 10
-35.879389561977504
 20
60.88933850473302
 10
-35.88053982107714
 20
60.888910941436976
 10
-35.881679240811685
 20
60.88845527814359
 10
-35.88280713483729
 20
60.887971789327366
 10
-35.88392282375278
 20
60.88746076622391
 10
-35.89157559878656
 20
60.88384127319511
 10
-35.895195040650144
 20
60.882129404685244
 10
-35.896297852406214
 20
60.881591155115764
 10
-35.89738712271032
 20
60.88102600330166
 10
-35.89846219542675
 20
60.88043428966927
 10
-35.899522422971906
 20
60.87981637064474
 10
-35.91021779625188
 20
60.8734058106036
 10
-35.91126253998433
 20
60.872762058398266
 10
-35.91229117058951
 20
60.87209286078437
 10
-35.91330306845882
 20
60.87139862086154
 10
-35.91429762406282
 20
60.87067975681394
 10
-35.92431315143391
 20
60.863251735467976
 10
-35.92528976568949
 20
60.86250868031243
 10
-35.92624785032074
 20
60.86174188163757
 10
-35.9271868282133
 20
60.86095180133426
 10
-35.928106133762
 20
60.86013891531733
 10
-35.93734536022067
 20
60.85176496857259
 10
-35.938244439670214
 20
60.85092976649417
 10
-35.93912275144878
 20
60.85007275144878
 10
-35.93997976649417
 20
60.849194439670214
 10
-35.94081496857259
 20
60.84829536022067
 10
-35.94918891531733
 20
60.839056133762
 10
-35.95000180133426
 20
60.8381368282133
 10
-35.95079188163757
 20
60.83719785032074
 10
-35.95155868031243
 20
60.83623976568949
 10
-35.95230173546798
 20
60.83526315143391
 10
-35.95972975681394
 20
60.82524762406282
 10
-35.96044862086154
 20
60.82425306845882
 10
-35.96114286078438
 20
60.82324117058951
 10
-35.96181205839827
 20
60.82221253998432
 10
-35.96245581060361
 20
60.82116779625187
 10
-35.96886637064475
 20
60.81047242297189
 10
-35.969484289669275
 20
60.80941219542674
 10
-35.97007600330166
 20
60.808337122710306
 10
-35.970641155115764
 20
60.807247852406206
 10
-35.971179404685245
 20
60.80614504065014
 10
-35.9765107662239
 20
60.7948728237528
 10
-35.97702178932737
 20
60.79375713483731
 10
-35.97750527814358
 20
60.79262924081169
 10
-35.977960941436976
 20
60.79148982107714
 10
-35.97838850473302
 20
60.790339561977504
 10
-35.982589323843236
 20
60.77859905907333
 10
-35.98298852959377
 20
60.777438653481695
 10
-35.983359137332194
 20
60.77626880038297
 10
-35.98370092381827
 20
60.77509020445294
 10
-35.98401368317258
 20
60.773903575633696
 10
-35.98704350366986
 20
60.761807854183914
 10
-35.987327047497885
 20
60.760613907256285
 10
-35.987581205003416
 20
60.75941336140927
 10
-35.98780582309147
 20
60.7582069398068
 10
-35.988000766460516
 20
60.75699536915212
 10
-35.98983040951725
 20
60.74466091756622
 10
-35.989995560740695
 20
60.743444927664214
 10
-35.990130820337605
 20
60.74222525098171
 10
-35.99023610683267
 20
60.741002622206345
 10
-35.99031135680523
 20
60.73977777780397
 10
-35.99092320207916
 20
60.72732338113891
 10
-35.99096837020145
 20
60.72609705891001
 10
-35.99098342926589
 20
60.72486999754522
  0
LWPOLYLINE
  5
2E
330
17
100
AcDbEntity
  8
0
100
AcDbPolyline
 90
5
 70
0
 43
0.0
 10
-35.63685648060476
 20
60.54780657067279
 10
-35.63685657066519
 20
-4.782916470795442
 10
45.79682647081054
 20
-4.782916570672794
 10
45.7968265706577
 20
60.54780647079544
 10
-35.63685648060476
 20
60.54780657067279
  0
LWPOLYLINE
  5
2F
330
17
100
AcDbEntity
  8
0
100
AcDbPolyline
 90
325
 70
0
 43
0.0
 10
24.510940002454785
 20
35.497213749323414
 10
31.87691999754522
 20
35.497213749323414
 10
31.878147058910045
 20
35.49722880838785
 10
31.87937338113899
 20
35.49727397651015
 10
31.880618814182576
 20
35.49733516071218
 10
31.881843658584923
 20
35.49741041068474
 10
31.88306628736027
 20
35.4975156971798
 10
31.884285964042746
 20
35.49765095677671
 10
31.885501953944733
 20
35.49781610800015
 10
31.886735390356275
 20
35.49799907100832
 10
31.88794696101094
 20
35.49819401437736
 10
31.889153382613408
 20
35.498418632465416
 10
31.890353928460417
 20
35.498672789970946
 10
31.891547875388035
 20
35.498956333798965
 10
31.89275743895513
 20
35.499259313700044
 10
31.89394406777438
 20
35.49957207305436
 10
31.895122663704427
 20
35.499913859540435
 10
31.896292516803157
 20
35.50028446727886
 10
31.897452922394802
 20
35.5006836730294
 10
31.89862696435936
 20
35.50110375196138
 10
31.899777223459015
 20
35.50153131525743
 10
31.900916643193582
 20
35.50198697855083
 10
31.90204453721921
 20
35.502470467367054
 10
31.903160226134723
 20
35.502981490470525
 10
31.90428743983059
 20
35.503514622843575
 10
31.90539025158665
 20
35.504052872413055
 10
31.906479521890738
 20
35.50461802422715
 10
31.907554594607156
 20
35.50520973785954
 10
31.908614822152302
 20
35.50582765688406
 10
31.90968435189556
 20
35.506468708342055
 10
31.910729095627985
 20
35.507112460547376
 10
31.911757726233148
 20
35.50778165816126
 10
31.912769624102435
 20
35.508475898084065
 10
31.91376417970641
 20
35.50919476213165
 10
31.914765725340896
 20
35.50993755899858
 10
31.915742339596534
 20
35.51068061415417
 10
31.916700424227837
 20
35.51144741282907
 10
31.91763940212045
 20
35.512237493132425
 10
31.9185587076692
 20
35.51305037914941
 10
31.91948262376295
 20
35.5138877678854
 10
31.920381703212442
 20
35.51472296996376
 10
31.921260014990942
 20
35.515579985009104
 10
31.922117030036283
 20
35.51645829678761
 10
31.922952232114646
 20
35.5173573762371
 10
31.92378962085065
 20
35.51828129233087
 10
31.924602506867597
 20
35.519200597879575
 10
31.92539258717092
 20
35.52013957577215
 10
31.926159385845786
 20
35.521097660403406
 10
31.92690244100135
 20
35.522074274659
 10
31.92764523786826
 20
35.52307582029345
 10
31.928364101915886
 20
35.52407037589749
 10
31.92905834183875
 20
35.52508227376685
 10
31.92972753945267
 20
35.526110904372075
 10
31.930371291658034
 20
35.527155648104575
 10
31.931012343116024
 20
35.52822517784783
 10
31.931630262140523
 20
35.52928540539295
 10
31.932221975772894
 20
35.530360478109344
 10
31.93278712758697
 20
35.53144974841341
 10
31.933325377156436
 20
35.532552560169435
 10
31.933858509529525
 20
35.53367977386539
 10
31.93436953263298
 20
35.53479546278088
 10
31.9348530214492
 20
35.535923356806485
 10
31.935308684742594
 20
35.53706277654103
 10
31.935736248038637
 20
35.538213035640666
 10
31.936156326970583
 20
35.53938707760512
 10
31.936555532721126
 20
35.540547483196775
 10
31.93692614045956
 20
35.54171733629552
 10
31.937267926945633
 20
35.542895932225576
 10
31.937580686299953
 20
35.54408256104484
 10
31.937883666201042
 20
35.545292124611976
 10
31.938167210029057
 20
35.546486071539576
 10
31.93842136753458
 20
35.54768661738656
 10
31.93864598562263
 20
35.548893038989
 10
31.938840928991674
 20
35.55010460964365
 10
31.93902389199984
 20
35.55133804605515
 10
31.939189043223283
 20
35.55255403595718
 10
31.9393243028202
 20
35.553773712639696
 10
31.939429589315264
 20
35.55499634141508
 10
31.939504839287824
 20
35.55622118581746
 10
31.93956602348986
 20
35.557466618861156
 10
31.939611191612155
 20
35.558692941090065
 10
31.93962625067659
 20
35.55992000245486
 10
31.93962625067659
 20
42.92591999754515
 10
31.939611191612155
 20
42.927147058909945
 10
31.93956602348986
 20
42.928373381138854
 10
31.939504839287824
 20
42.92961881418255
 10
31.939429589315264
 20
42.930843658584934
 10
31.9393243028202
 20
42.932066287360314
 10
31.939189043223283
 20
42.93328596404283
 10
31.93902389199984
 20
42.93450195394486
 10
31.938840928991674
 20
42.93573539035636
 10
31.93864598562263
 20
42.93694696101101
 10
31.93842136753458
 20
42.93815338261345
 10
31.938167210029057
 20
42.939353928460434
 10
31.937883666201042
 20
42.940547875388035
 10
31.937580686299953
 20
42.94175743895517
 10
31.937267926945633
 20
42.942944067774434
 10
31.93692614045956
 20
42.94412266370449
 10
31.936555532721126
 20
42.945292516803235
 10
31.936156326970583
 20
42.94645292239489
 10
31.935736248038637
 20
42.947626964359344
 10
31.935308684742594
 20
42.94877722345898
 10
31.9348530214492
 20
42.949916643193525
 10
31.93436953263298
 20
42.95104453721913
 10
31.933858509529525
 20
42.95216022613462
 10
31.933325377156436
 20
42.953287439830575
 10
31.93278712758697
 20
42.9543902515866
 10
31.932221975772894
 20
42.955479521890666
 10
31.931630262140523
 20
42.95655459460706
 10
31.931012343116024
 20
42.95761482215218
 10
31.930371291658034
 20
42.958684351895435
 10
31.92972753945267
 20
42.959729095627935
 10
31.92905834183875
 20
42.96075772623316
 10
31.928364101915886
 20
42.96176962410252
 10
31.92764523786826
 20
42.96276417970656
 10
31.92690244100135
 20
42.96376572534101
 10
31.926159385845786
 20
42.964742339596604
 10
31.92539258717092
 20
42.96570042422786
 10
31.924602506867597
 20
42.966639402120435
 10
31.92378962085065
 20
42.96755870766914
 10
31.922952232114646
 20
42.96848262376291
 10
31.922117030036283
 20
42.9693817032124
 10
31.921260014990942
 20
42.970260014990906
 10
31.920381703212442
 20
42.97111703003625
 10
31.91948262376295
 20
42.97195223211461
 10
31.9185587076692
 20
42.9727896208506
 10
31.91763940212045
 20
42.973602506867586
 10
31.916700424227837
 20
42.97439258717094
 10
31.915742339596534
 20
42.97515938584584
 10
31.914765725340896
 20
42.97590244100143
 10
31.91376417970641
 20
42.97664523786836
 10
31.912769624102435
 20
42.977364101915946
 10
31.911757726233148
 20
42.978058341838754
 10
31.910729095627985
 20
42.978727539452635
 10
31.90968435189556
 20
42.979371291657955
 10
31.908614822152302
 20
42.98001234311595
 10
31.907554594607156
 20
42.98063026214047
 10
31.906479521890738
 20
42.98122197577286
 10
31.90539025158665
 20
42.981787127586955
 10
31.90428743983059
 20
42.982325377156435
 10
31.903160226134723
 20
42.982858509529486
 10
31.90204453721921
 20
42.983369532632956
 10
31.900916643193582
 20
42.98385302144918
 10
31.899777223459015
 20
42.98430868474258
 10
31.89862696435936
 20
42.98473624803863
 10
31.897452922394802
 20
42.98515632697061
 10
31.896292516803157
 20
42.98555553272115
 10
31.895122663704427
 20
42.985926140459576
 10
31.89394406777438
 20
42.98626792694565
 10
31.89275743895513
 20
42.986580686299966
 10
31.891547875388035
 20
42.986883666201045
 10
31.890353928460417
 20
42.987167210029064
 10
31.889153382613408
 20
42.987421367534594
 10
31.88794696101094
 20
42.98764598562265
 10
31.886735390356275
 20
42.98784092899169
 10
31.885501953944733
 20
42.98802389199986
 10
31.884285964042746
 20
42.9881890432233
 10
31.88306628736027
 20
42.98832430282021
 10
31.881843658584923
 20
42.98842958931527
 10
31.880618814182576
 20
42.98850483928783
 10
31.87937338113899
 20
42.98856602348986
 10
31.878147058910045
 20
42.98861119161216
 10
31.87691999754522
 20
42.988626250676596
 10
24.510940002454785
 20
42.988626250676596
 10
24.50971294108996
 20
42.98861119161216
 10
24.508486618861014
 20
42.98856602348986
 10
24.507241185817428
 20
42.98850483928783
 10
24.50601634141508
 20
42.98842958931527
 10
24.504793712639735
 20
42.98832430282021
 10
24.503574035957257
 20
42.9881890432233
 10
24.50235804605527
 20
42.98802389199986
 10
24.50112460964373
 20
42.98784092899169
 10
24.499913038989064
 20
42.98764598562265
 10
24.498706617386595
 20
42.987421367534594
 10
24.497506071539586
 20
42.987167210029064
 10
24.49631212461197
 20
42.986883666201045
 10
24.495102561044874
 20
42.986580686299966
 10
24.493915932225622
 20
42.98626792694565
 10
24.492737336295576
 20
42.985926140459576
 10
24.491567483196846
 20
42.98555553272115
 10
24.4904070776052
 20
42.98515632697061
 10
24.489233035640645
 20
42.98473624803863
 10
24.48808277654099
 20
42.98430868474258
 10
24.48694335680642
 20
42.98385302144918
 10
24.485815462780792
 20
42.983369532632956
 10
24.48469977386528
 20
42.982858509529486
 10
24.483572560169414
 20
42.982325377156435
 10
24.482469748413354
 20
42.981787127586955
 10
24.481380478109266
 20
42.98122197577286
 10
24.480305405392848
 20
42.98063026214047
 10
24.4792451778477
 20
42.98001234311595
 10
24.478175648104443
 20
42.979371291657955
 10
24.477130904372018
 20
42.978727539452635
 10
24.476102273766855
 20
42.978058341838754
 10
24.47509037589757
 20
42.977364101915946
 10
24.474095820293595
 20
42.97664523786836
 10
24.473094274659108
 20
42.97590244100143
 10
24.47211766040347
 20
42.97515938584584
 10
24.471159575772166
 20
42.97439258717094
 10
24.470220597879553
 20
42.973602506867586
 10
24.469301292330805
 20
42.9727896208506
 10
24.468377376237054
 20
42.97195223211461
 10
24.46747829678756
 20
42.97111703003625
 10
24.46659998500906
 20
42.970260014990906
 10
24.46574296996372
 20
42.9693817032124
 10
24.464907767885357
 20
42.96848262376291
 10
24.464070379149355
 20
42.96755870766914
 10
24.463257493132406
 20
42.966639402120435
 10
24.462467412829085
 20
42.96570042422786
 10
24.461700614154218
 20
42.964742339596604
 10
24.460957558998654
 20
42.96376572534101
 10
24.460214762131745
 20
42.96276417970656
 10
24.459495898084118
 20
42.96176962410252
 10
24.458801658161253
 20
42.96075772623316
 10
24.458132460547333
 20
42.959729095627935
 10
24.45748870834197
 20
42.958684351895435
 10
24.45684765688398
 20
42.95761482215218
 10
24.45622973785948
 20
42.95655459460706
 10
24.45563802422711
 20
42.955479521890666
 10
24.455072872413034
 20
42.9543902515866
 10
24.454534622843568
 20
42.953287439830575
 10
24.45400149047048
 20
42.95216022613462
 10
24.453490467367022
 20
42.95104453721913
 10
24.453006978550803
 20
42.949916643193525
 10
24.45255131525741
 20
42.94877722345898
 10
24.452123751961366
 20
42.947626964359344
 10
24.45170367302942
 20
42.94645292239489
 10
24.451304467278877
 20
42.945292516803235
 10
24.450933859540445
 20
42.94412266370449
 10
24.45059207305437
 20
42.942944067774434
 10
24.45027931370005
 20
42.94175743895517
 10
24.44997633379896
 20
42.940547875388035
 10
24.449692789970946
 20
42.939353928460434
 10
24.449438632465423
 20
42.93815338261345
 10
24.44921401437737
 20
42.93694696101101
 10
24.44901907100833
 20
42.93573539035636
 10
24.44883610800016
 20
42.93450195394486
 10
24.44867095677672
 20
42.93328596404283
 10
24.448535697179803
 20
42.932066287360314
 10
24.44843041068474
 20
42.930843658584934
 10
24.44835516071218
 20
42.92961881418255
 10
24.448293976510143
 20
42.928373381138854
 10
24.44824880838785
 20
42.927147058909945
 10
24.448233749323414
 20
42.92591999754515
 10
24.448233749323414
 20
35.55992000245486
 10
24.44824880838785
 20
35.558692941090065
 10
24.448293976510143
 20
35.557466618861156
 10
24.44835516071218
 20
35.55622118581746
 10
24.44843041068474
 20
35.55499634141508
 10
24.448535697179803
 20
35.553773712639696
 10
24.44867095677672
 20
35.55255403595718
 10
24.44883610800016
 20
35.55133804605515
 10
24.44901907100833
 20
35.55010460964365
 10
24.44921401437737
 20
35.548893038989
 10
24.449438632465423
 20
35.54768661738656
 10
24.449692789970946
 20
35.546486071539576
 10
24.44997633379896
 20
35.545292124611976
 10
24.45027931370005
 20
35.54408256104484
 10
24.45059207305437
 20
35.542895932225576
 10
24.450933859540445
 20
35.54171733629552
 10
24.451304467278877
 20
35.540547483196775
 10
24.45170367302942
 20
35.53938707760512
 10
24.452123751961366
 20
35.538213035640666
 10
24.45255131525741
 20
35.53706277654103
 10
24.453006978550803
 20
35.535923356806485
 10
24.453490467367022
 20
35.53479546278088
 10
24.45400149047048
 20
35.53367977386539
 10
24.454534622843568
 20
35.532552560169435
 10
24.455072872413034
 20
35.53144974841341
 10
24.45563802422711
 20
35.530360478109344
 10
24.45622973785948
 20
35.52928540539295
 10
24.45684765688398
 20
35.52822517784783
 10
24.45748870834197
 20
35.527155648104575
 10
24.458132460547333
 20
35.526110904372075
 10
24.458801658161253
 20
35.52508227376685
 10
24.459495898084118
 20
35.52407037589749
 10
24.460214762131745
 20
35.52307582029345
 10
24.460957558998654
 20
35.522074274659
 10
24.461700614154218
 20
35.521097660403406
 10
24.462467412829085
 20
35.52013957577215
 10
24.463257493132406
 20
35.519200597879575
 10
24.464070379149355
 20
35.51828129233087
 10
24.464907767885357
 20
35.5173573762371
 10
24.46574296996372
 20
35.51645829678761
 10
24.46659998500906
 20
35.515579985009104
 10
24.46747829678756
 20
35.51472296996376
 10
24.468377376237054
 20
35.5138877678854
 10
24.469301292330805
 20
35.51305037914941
 10
24.470220597879553
 20
35.512237493132425
 10
24.471159575772166
 20
35.51144741282907
 10
24.47211766040347
 20
35.51068061415417
 10
24.473094274659108
 20
35.50993755899858
 10
24.474095820293595
 20
35.50919476213165
 10
24.47509037589757
 20
35.508475898084065
 10
24.476102273766855
 20
35.50778165816126
 10
24.477130904372018
 20
35.507112460547376
 10
24.478175648104443
 20
35.506468708342055
 10
24.4792451778477
 20
35.50582765688406
 10
24.480305405392848
 20
35.50520973785954
 10
24.481380478109266
 20
35.50461802422715
 10
24.482469748413354
 20
35.504052872413055
 10
24.483572560169414
 20
35.503514622843575
 10
24.48469977386528
 20
35.502981490470525
 10
24.485815462780792
 20
35.502470467367054
 10
24.48694335680642
 20
35.50198697855083
 10
24.48808277654099
 20
35.50153131525743
 10
24.489233035640645
 20
35.50110375196138
 10
24.4904070776052
 20
35.5006836730294
 10
24.491567483196846
 20
35.50028446727886
 10
24.492737336295576
 20
35.499913859540435
 10
24.493915932225622
 20
35.49957207305436
 10
24.495102561044874
 20
35.499259313700044
 10
24.49631212461197
 20
35.498956333798965
 10
24.497506071539586
 20
35.498672789970946
 10
24.498706617386595
 20
35.498418632465416
 10
24.499913038989064
 20
35.49819401437736
 10
24.50112460964373
 20
35.49799907100832
 10
24.50235804605527
 20
35.49781610800015
 10
24.503574035957257
 20
35.49765095677671
 10
24.504793712639735
 20
35.4975156971798
 10
24.50601634141508
 20
35.49741041068474
 10
24.507241185817428
 20
35.49733516071218
 10
24.508486618861014
 20
35.49727397651015
 10
24.50971294108996
 20
35.49722880838785
 10
24.510940002454785
 20
35.497213749323414
  0
LWPOLYLINE
  5
30
330
17
100
AcDbEntity
  8
0
100
AcDbPolyline
 90
5
 70
0
 43
0.0
 10
24.573646251357733
 20
35.622626340260496
 10
31.814213650004557
 20
35.62262625129098
 10
31.81421374864227
 20
42.86321365000456
 10
24.573646349995446
 20
42.863213748642266
 10
24.573646251357733
 20
35.622626340260496
  0
ENDSEC
  0
SECTION
  2
OBJECTS
  0
DICTIONARY
  5
A
330
0
100
AcDbDictionary
281
1
  3
ACAD_MLEADERSTYLE
350
F
  3
ACAD_TABLESTYLE
350
15
  3
ACAD_SCALELIST
350
14
  3
ACAD_PLOTSTYLENAME
350
12
  3
ACAD_PLOTSETTINGS
350
11
  3
ACAD_COLOR
350
B
  3
ACAD_GROUP
350
C
  3
ACAD_VISUALSTYLE
350
16
  3
ACAD_MATERIAL
350
E
  3
ACAD_MLINESTYLE
350
10
  3
ACAD_LAYOUT
350
D
  0
DICTIONARY
  5
B
330
A
100
AcDbDictionary
281
1
  0
DICTIONARY
  5
C
330
A
100
AcDbDictionary
281
1
  0
DICTIONARY
  5
D
330
A
100
AcDbDictionary
281
1
  3
Model
350
1A
  3
Layout1
350
1E
  0
DICTIONARY
  5
E
330
A
100
AcDbDictionary
281
1
  3
ByBlock
350
1F
  3
Global
350
21
  3
ByLayer
350
20
  0
DICTIONARY
  5
F
330
A
100
AcDbDictionary
281
1
  3
Standard
350
2C
  0
DICTIONARY
  5
10
330
A
100
AcDbDictionary
281
1
  3
Standard
350
22
  0
DICTIONARY
  5
11
330
A
100
AcDbDictionary
281
1
  0
ACDBDICTIONARYWDFLT
  5
12
330
A
100
AcDbDictionary
281
1
  3
Normal
350
13
100
AcDbDictionaryWithDefault
340
13
  0
ACDBPLACEHOLDER
  5
13
330
12
  0
DICTIONARY
  5
14
330
A
100
AcDbDictionary
281
1
  0
DICTIONARY
  5
15
330
A
100
AcDbDictionary
281
1
  0
DICTIONARY
  5
16
330
A
100
AcDbDictionary
281
1
  0
LAYOUT
  5
1A
330
D
100
AcDbPlotSettings
  1

  2
Adobe PDF
  4
A4
  6

 40
3.175
 41
3.175
 42
3.175
 43
3.175
 44
209.91
 45
297.03
 46
0.0
 47
0.0
 48
0.0
 49
0.0
140
0.0
141
0.0
142
1.0
143
1.0
 70
688
 72
0
 73
1
 74
5
  7

 75
16
 76
0
 77
2
 78
300
147
1.0
148
0.0
149
0.0
100
AcDbLayout
  1
Model
 70
1
 71
0
 10
-3.175
 20
-3.175
 11
293.857
 21
206.735
 12
0.0
 22
0.0
 32
0.0
 14
29.068
 24
20.356
 34
0.0
 15
261.614
 25
183.204
 35
0.0
146
0.0
 13
0.0
 23
0.0
 33
0.0
 16
1.0
 26
0.0
 36
0.0
 17
0.0
 27
1.0
 37
0.0
 76
1
330
17
  0
LAYOUT
  5
1E
330
D
100
AcDbPlotSettings
  1

  2
Adobe PDF
  4
A4
  6

 40
3.175
 41
3.175
 42
3.175
 43
3.175
 44
209.91
 45
297.03
 46
0.0
 47
0.0
 48
0.0
 49
0.0
140
0.0
141
0.0
142
1.0
143
1.0
 70
688
 72
0
 73
1
 74
5
  7

 75
16
 76
0
 77
2
 78
300
147
1.0
148
0.0
149
0.0
100
AcDbLayout
  1
Layout1
 70
1
 71
1
 10
-3.175
 20
-3.175
 11
293.857
 21
206.735
 12
0.0
 22
0.0
 32
0.0
 14
29.068
 24
20.356
 34
0.0
 15
261.614
 25
183.204
 35
0.0
146
0.0
 13
0.0
 23
0.0
 33
0.0
 16
1.0
 26
0.0
 36
0.0
 17
0.0
 27
1.0
 37
0.0
 76
1
330
1B
  0
MATERIAL
  5
1F
102
{ACAD_REACTORS
330
E
102
}
330
E
100
AcDbMaterial
  1
ByBlock
  2

 70
0
 40
1.0
 71
1
 41
1.0
 91
-1023410177
 42
1.0
 72
1
  3

 73
1
 74
1
 75
1
 44
0.5
 73
0
 45
1.0
 46
1.0
 77
1
  4

 78
1
 79
1
170
1
 48
1.0
171
1
  6

172
1
173
1
174
1
140
1.0
141
1.0
175
1
  7

176
1
177
1
178
1
143
1.0
179
1
  8

270
1
271
1
272
1
145
1.0
146
1.0
273
1
  9

274
1
275
1
276
1
 42
1.0
 72
1
  3

 73
1
 74
1
 75
1
 94
63
  0
MATERIAL
  5
20
102
{ACAD_REACTORS
330
E
102
}
330
E
100
AcDbMaterial
  1
ByLayer
  2

 70
0
 40
1.0
 71
1
 41
1.0
 91
-1023410177
 42
1.0
 72
1
  3

 73
1
 74
1
 75
1
 44
0.5
 73
0
 45
1.0
 46
1.0
 77
1
  4

 78
1
 79
1
170
1
 48
1.0
171
1
  6

172
1
173
1
174
1
140
1.0
141
1.0
175
1
  7

176
1
177
1
178
1
143
1.0
179
1
  8

270
1
271
1
272
1
145
1.0
146
1.0
273
1
  9

274
1
275
1
276
1
 42
1.0
 72
1
  3

 73
1
 74
1
 75
1
 94
63
  0
MATERIAL
  5
21
102
{ACAD_REACTORS
330
E
102
}
330
E
100
AcDbMaterial
  1
Global
  2

 70
0
 40
1.0
 71
1
 41
1.0
 91
-1023410177
 42
1.0
 72
1
  3

 73
1
 74
1
 75
1
 44
0.5
 73
0
 45
1.0
 46
1.0
 77
1
  4

 78
1
 79
1
170
1
 48
1.0
171
1
  6

172
1
173
1
174
1
140
1.0
141
1.0
175
1
  7

176
1
177
1
178
1
143
1.0
179
1
  8

270
1
271
1
272
1
145
1.0
146
1.0
273
1
  9

274
1
275
1
276
1
 42
1.0
 72
1
  3

 73
1
 74
1
 75
1
 94
63
  0
MLINESTYLE
  5
22
102
{ACAD_REACTORS
330
10
102
}
330
10
100
AcDbMlineStyle
 70
0
  2
Standard
  3

 51
90.0
 52
90.0
 62
256
 71
2
 49
0.5
 62
256
  6
BYLAYER
 49
-0.5
 62
256
  6
BYLAYER
  0
MLEADERSTYLE
  5
2C
102
{ACAD_REACTORS
330
F
102
}
330
F
100
AcDbMLeaderStyle
143
3.75
 49
0.0
140
1.0
296
0
 41
0.0
 90
2
173
1
300

 44
4.0
271
0
 94
-1056964608
174
1
272
9
 40
0.0
 45
4.0
176
0
297
0
292
0
178
1
 92
-2
290
1
 46
4.0
171
1
142
1.0
272
9
175
1
294
1
  3
Standard
179
2
172
0
141
0.0
 42
2.0
177
0
 47
1.0
291
1
 43
8.0
 91
-1056964608
342
29
 93
-1056964608
295
0
170
2
  0
ENDSEC
  0
EOF
